<?xml version="1.0" standalone="no"?>
<!DOCTYPE svg PUBLIC "-//W3C//DTD SVG 20010904//EN"
 "http://www.w3.org/TR/2001/REC-SVG-20010904/DTD/svg10.dtd">
<svg version="1.0" xmlns="http://www.w3.org/2000/svg"
 width="640.000000pt" height="640.000000pt" viewBox="0 0 640.000000 640.000000"
 preserveAspectRatio="xMidYMid meet">
<metadata>
Created by potrace 1.14, written by Peter Selinger 2001-2017
</metadata>
<g transform="translate(0.000000,640.000000) scale(0.100000,-0.100000)"
fill="#000000" stroke="none">
<path d="M604 5121 c-2 -2 -23 -5 -46 -7 -52 -5 -208 -54 -208 -65 0 -5 -6 -9
-12 -9 -24 -1 -103 -61 -166 -127 -64 -68 -136 -196 -147 -260 -3 -18 -9 -44
-15 -58 -6 -16 -10 -525 -9 -1383 0 -1496 -3 -1425 63 -1565 41 -87 52 -103
138 -188 44 -43 93 -79 144 -105 42 -21 81 -40 86 -40 4 -1 9 -2 11 -4 1 -1 9
-3 17 -5 8 -2 29 -6 45 -10 17 -4 72 -8 122 -9 51 0 93 -3 93 -6 0 -3 26 -4
57 -3 32 1 58 2 58 3 0 1 28 2 63 3 34 1 62 0 62 -3 0 -3 26 -4 57 -3 32 1 58
2 58 3 0 1 28 2 63 3 34 1 62 0 62 -3 0 -3 26 -4 57 -3 32 1 58 2 58 3 0 1 28
2 63 3 34 1 62 0 62 -3 0 -3 26 -4 57 -3 32 1 58 2 58 3 0 1 28 2 63 3 34 1
62 0 62 -3 0 -3 26 -4 57 -3 32 1 58 2 58 3 0 1 28 2 63 3 34 1 62 0 62 -3 0
-3 26 -4 57 -3 32 1 58 2 58 3 0 1 28 2 63 3 34 1 62 0 62 -3 0 -3 26 -4 57
-3 32 1 58 2 58 3 0 1 28 2 63 3 34 1 62 0 62 -3 0 -3 26 -4 57 -3 32 1 58 2
58 3 0 1 28 2 63 3 34 1 62 0 62 -3 0 -3 26 -4 57 -3 32 1 58 2 58 3 0 1 28 2
63 3 34 1 62 0 62 -3 0 -3 26 -4 57 -3 32 1 58 2 58 3 0 1 28 2 63 3 34 1 62
0 62 -3 0 -3 26 -4 57 -3 32 1 58 2 58 3 0 1 28 2 63 3 34 1 62 0 62 -3 0 -3
26 -4 57 -3 32 1 58 2 58 3 0 1 28 2 63 3 34 1 62 0 62 -3 0 -3 26 -4 57 -3
32 1 58 2 58 3 0 1 28 2 63 3 34 1 62 0 62 -3 0 -3 26 -4 57 -3 32 1 58 2 58
3 0 1 28 2 63 3 34 1 62 0 62 -3 0 -3 26 -4 57 -3 32 1 58 2 58 3 0 1 28 2 63
3 34 1 62 0 62 -3 0 -3 26 -4 57 -3 32 1 58 2 58 3 0 1 28 2 63 3 34 1 62 0
62 -3 0 -3 26 -4 57 -3 32 1 58 2 58 3 0 1 28 2 63 3 34 1 62 0 62 -3 0 -3 26
-4 57 -3 32 1 58 2 58 3 0 1 28 2 63 3 34 1 62 0 62 -3 0 -6 109 -4 116 2 2 3
24 2 49 -2 24 -4 50 -3 57 1 6 4 15 6 19 4 5 -4 67 -6 119 -4 8 0 33 0 55 0
22 0 47 0 55 0 8 0 40 0 70 0 30 0 64 -1 75 -1 11 0 36 0 55 0 63 0 167 7 177
13 5 3 25 9 44 12 66 11 193 82 262 147 66 63 126 142 127 166 0 6 4 12 8 12
5 0 22 37 38 82 l29 83 2 1375 c3 1518 6 1442 -61 1583 -39 84 -52 101 -127
178 -46 46 -157 129 -174 129 -2 0 -16 5 -32 12 -15 6 -31 12 -35 13 -5 2 -9
3 -10 5 -2 1 -10 3 -18 5 -8 2 -28 6 -45 10 -32 7 -109 14 -160 15 -34 0 -49
0 -120 -1 -27 0 -57 0 -65 0 -8 1 -33 1 -55 0 -38 -1 -47 0 -77 2 -14 1 -112
0 -168 -2 -19 -1 -41 -1 -47 0 -7 1 -19 1 -25 2 -14 1 -112 0 -168 -2 -19 -1
-41 -1 -47 0 -7 1 -19 1 -25 2 -14 1 -112 0 -168 -2 -19 -1 -41 -1 -47 0 -7 1
-19 1 -25 2 -14 1 -112 0 -168 -2 -19 -1 -41 -1 -47 0 -7 1 -19 1 -25 2 -14 1
-112 0 -168 -2 -19 -1 -41 -1 -47 0 -7 1 -19 1 -25 2 -14 1 -112 0 -168 -2
-19 -1 -39 -1 -45 -1 -13 1 -395 1 -415 1 -8 -1 -80 0 -160 0 -80 0 -152 0
-160 0 -8 0 -80 0 -160 0 -80 0 -152 0 -160 0 -8 0 -80 0 -160 0 -178 1 -362
2 -375 2 -82 -1 -103 -1 -190 0 -33 0 -67 0 -75 0 -8 -1 -31 -1 -50 0 -19 0
-42 0 -50 0 -8 0 -40 0 -70 0 -30 0 -62 0 -70 0 -8 -1 -31 -1 -50 0 -19 0 -42
0 -50 0 -8 0 -40 0 -70 0 -30 0 -62 0 -70 0 -8 -1 -31 -1 -50 0 -19 0 -42 0
-50 0 -8 0 -40 0 -70 0 -30 0 -62 0 -70 0 -8 -1 -31 -1 -50 0 -19 1 -39 1 -45
0 -70 -4 -135 -5 -135 -1 0 3 -26 4 -57 3 -32 -1 -58 -2 -58 -3 0 -1 -28 -2
-63 -3 -34 -1 -62 0 -62 3 0 3 -26 4 -57 3 -32 -1 -58 -2 -58 -3 0 -1 -28 -2
-63 -3 -34 -1 -62 0 -62 3 0 6 -110 7 -116 1z m2818 -640 c6 4 15 6 19 4 6 -4
80 -6 119 -4 8 1 29 0 45 0 26 -1 130 -3 160 -3 6 0 71 1 145 1 74 0 144 0
155 0 11 0 85 0 165 0 80 0 151 0 158 0 19 0 181 0 195 0 6 -1 37 -1 67 0 30
0 62 0 70 0 8 -1 31 -1 50 0 19 1 42 1 50 0 8 -1 40 -1 70 0 30 0 62 0 70 0 8
-1 31 -1 50 0 19 1 42 1 50 0 8 -1 40 -1 70 0 30 0 62 0 70 0 8 -1 31 -1 50 0
19 1 42 1 50 0 8 -1 40 -1 70 0 30 0 62 0 70 0 8 -1 31 -1 50 0 19 1 42 1 50
0 8 -1 38 -1 65 0 153 3 154 3 154 -16 0 -10 0 -36 0 -58 0 -22 0 -47 0 -55 0
-8 0 -31 0 -50 1 -19 1 -42 0 -50 0 -8 0 -42 0 -75 1 -85 1 -131 0 -190 0 -5
0 -66 1 -135 0 -69 0 -127 0 -130 -4 -19 -4 -120 0 -120 3 0 4 -30 2 -67 -4
-90 -2 -165 4 -175 3 -4 0 -8 -6 -8 -6 0 -9 -4 -6 -9 5 -7 7 -82 5 -131 0 -8
0 -40 0 -70 0 -30 0 -62 0 -70 0 -8 0 -31 0 -50 1 -19 1 -42 0 -50 0 -8 0 -42
0 -75 1 -85 1 -131 0 -190 0 -5 0 -66 1 -135 0 -69 0 -127 0 -130 -4 -19 -4
-120 0 -120 3 0 4 -28 3 -62 -1 -35 -2 -63 -3 -63 -1 0 -2 -26 -3 -58 -1 -31
1 -57 4 -57 3 0 3 -20 -1 -45 -4 -24 -4 -49 0 -55 4 -6 5 -22 2 -36 -4 -20
-11 -24 -41 -25 -20 -1 -40 0 -46 1 -5 1 -32 1 -60 0 -27 -1 -57 -1 -65 -1 -8
1 -33 1 -55 0 -38 -1 -47 0 -77 2 -7 1 -38 1 -68 0 -30 0 -62 0 -70 0 -8 1
-31 1 -50 0 -19 -1 -42 -1 -50 0 -8 1 -40 1 -70 0 -30 0 -62 0 -70 0 -8 1 -31
1 -50 0 -19 -1 -42 -1 -50 0 -8 1 -40 1 -70 0 -30 0 -62 0 -70 0 -8 1 -31 1
-50 0 -19 -1 -42 -1 -50 0 -8 1 -40 1 -70 0 -30 0 -62 -1 -70 0 -14 0 -264 1
-305 0 -11 0 -85 0 -165 0 -80 0 -152 0 -160 0 -8 0 -62 0 -120 0 -58 0 -109
0 -115 0 -82 -1 -103 -1 -190 0 -73 1 -75 1 -100 -1 -11 -1 -38 -1 -60 -1 -22
0 -47 0 -55 0 -8 0 -32 1 -53 2 l-38 2 1 46 c0 25 -1 53 -1 61 -1 8 -1 38 0
65 0 28 1 57 0 65 -1 8 -1 31 0 50 2 56 3 154 2 168 -1 6 -1 18 -2 25 -1 6 -1
28 0 47 2 56 3 154 2 168 -1 6 -1 18 -2 25 -1 6 -1 28 0 47 2 56 3 154 2 168
-1 6 -1 18 -2 25 -1 6 -1 28 0 47 2 48 3 152 2 168 0 13 0 175 0 195 0 6 0 77
0 157 0 80 0 152 0 160 0 8 0 80 0 160 0 80 0 152 0 160 0 8 0 80 0 160 0 80
0 152 0 160 0 8 0 59 -1 112 -1 54 2 103 5 109 4 6 29 9 56 8 27 -2 51 0 54 3
3 2 25 2 50 -2 24 -4 50 -3 57 1z m-1711 -396 c21 -15 44 -37 52 -49 8 -11 58
-120 112 -241 53 -121 107 -240 118 -265 11 -25 21 -47 22 -50 1 -3 8 -21 17
-40 8 -19 43 -96 76 -170 33 -74 71 -160 85 -190 13 -30 50 -113 81 -185 58
-131 67 -152 126 -280 51 -111 49 -185 -8 -262 -67 -91 -233 -92 -303 -1 -13
16 -45 78 -71 136 l-47 107 -138 3 c-169 3 -135 3 -391 2 l-213 -1 -9 -25 c-9
-23 -26 -61 -78 -174 -34 -76 -100 -117 -182 -115 -117 3 -188 70 -196 182 -3
57 0 68 95 276 17 37 31 69 31 72 0 2 15 36 34 77 18 40 56 125 84 188 27 63
64 147 82 185 17 39 38 84 45 100 7 17 26 59 42 95 16 36 79 177 139 314 139
318 169 351 303 341 37 -3 65 -12 92 -30z"/>
<path d="M4395 4100 c-70 -36 -104 -86 -112 -165 l-6 -53 -261 0 c-143 0 -277
-3 -296 -7 -88 -15 -158 -102 -155 -195 2 -85 33 -137 106 -177 32 -17 70 -18
592 -20 307 -1 561 -3 563 -6 14 -13 -127 -249 -211 -352 -84 -105 -67 -105
-176 1 -103 99 -142 119 -217 111 -68 -8 -110 -34 -152 -96 -19 -27 -24 -48
-24 -95 0 -78 16 -108 106 -198 53 -53 67 -73 57 -79 -8 -5 -71 -38 -140 -74
-74 -38 -134 -76 -145 -93 -62 -84 -51 -202 24 -267 84 -73 153 -71 313 8 63
31 148 79 191 107 79 52 96 58 115 39 6 -6 20 -16 31 -23 11 -6 60 -35 108
-65 49 -30 105 -63 124 -74 19 -10 40 -23 45 -27 19 -15 109 -20 145 -9 91 30
141 104 136 201 -4 87 -36 126 -166 204 -58 35 -113 68 -123 74 -17 10 -14 16
30 68 73 87 113 140 113 151 0 5 3 11 8 13 10 4 62 85 62 97 0 5 4 11 8 13 17
7 134 254 166 351 3 9 16 17 28 18 108 3 187 79 193 184 4 67 -6 99 -43 141
-63 73 -78 75 -387 75 -82 0 -157 0 -165 0 -22 0 -151 0 -177 0 -13 -1 -23 5
-24 12 -3 86 -15 123 -56 166 -53 57 -160 76 -228 41z"/>
<path d="M1585 3398 c-4 -13 -22 -54 -39 -93 -18 -38 -48 -106 -67 -150 -19
-44 -41 -96 -51 -115 -9 -19 -15 -36 -13 -38 3 -4 367 -3 371 1 1 1 -22 56
-52 122 -76 170 -88 199 -86 208 1 4 -2 7 -6 7 -5 0 -15 18 -22 40 -15 45 -26
50 -35 18z"/>
</g>
</svg>
